/* XPM */
static char *result[] = {
/* columns rows colors chars-per-pixel */
"64 64 6 1 ",
"  c black",
". c #2F2300",
"X c #F68080",
"o c #CDCDCD",
"O c gray92",
"+ c None",
/* pixels */
"++++++++++++++++++++++++++++++++++++++++++++++++++++++++++++++++",
"++++++++++++++++++++++++++++++++++++++++++++++++++++++++++++++++",
"++++++++++++++++++++++++++++++++++++++++++++++++++++++++++++++++",
"++++++++++++++++++++++++++++++++++++++++++++++++++++++++++++++++",
"++++++++++++++++++++++++++++++++++++++++++++++++++++++++++++++++",
"++++++++++++++++++++++++++++++++++++++++++++++++++++++++++++++++",
"++++++++++++++++++++++++++++++++++++++++++++++++++++++++++++++++",
"++++++++++++++++++++++++++++++++++++++++++++++++++++++++++++++++",
"++++++++++++++++++++++++++++++++++++++++++++++++++++++++++++++++",
"++++++++++++++++++++++++++++++++++++++++++++++++++++++++++++++++",
"++++++++++++++++++++++++++++++++++++++++++++++++++++++++++++++++",
"++++++++++++++++++++++++++++++++++++++++++++++++++++++++++++++++",
"++++++++++++++++++++++++++++++++++++++++++++++++++++++++++++++++",
"++++++++++++++++++++++++++++++++++++++++++++++++++++++++++++++++",
"++++++++++++++++++++++++++++++++++++++++++++++++++++++++++++++++",
"++++++++++++++++++++++++++++++++++++++++++++++++++++++++++++++++",
"++++++++++++++++++++++++++++++++++++++++++++++++++++++++++++++++",
"++++++++++++++++++++++++++++++++++++++++++++++++++++++++++++++++",
"++++++++++++++++++++++++++++++++++++++++++++++++++++++++++++++++",
"++++++++++++++++++++++++++++++++++++++++++++++++++++++++++++++++",
"++++++++++++++++++++++++++++++++++++++++++++++++++++++++++++++++",
"++++++++++++++++++++++++++++++++++++++++++++++++++++++++++++++++",
"++++++++++++++++++++++++++++++    ++++++++  ++++++++++++++++++++",
"++++++++++++++++++++++++++++++    ++++++++  ++++++++++++++++++++",
"++++++++++++++++++++++++++++  XXOO  ++++  oo  ++++++++++++++++++",
"++++++++++++++++++++++++++++  XXOO  ++++  oo  ++++++++++++++++++",
"++++++++++++++++++++++++++++  XXOOOO    oooo  ++++++++++++++++++",
"++++++++++++++++++++++++++++  XXOOOO    oooo  ++++++++++++++++++",
"++++++++++++++++++++++++++++  XXOOOOOOOOOOoo  ++++++++++++++++++",
"++++++++++++++++++++++++++++  XXOOOOOOOOOOoo  ++++++++++++++++++",
"++++++++++++++++++  ++++++++  OOOOOOOOOOOOOO  ++++++++++++++++++",
"++++++++++++++++++  ++++++++  OOOOOOOOOOOOOO  ++++++++++++++++++",
"++++++++++++++++  oo  ++++++  OOOO..OOOO..OO  ++++++++++++++++++",
"++++++++++++++++  oo  ++++++  OOOO..OOOO..OO  ++++++++++++++++++",
"++++++++++++++++++  oo  ++    OOOOOOOOXXOOOO  ++++++++++++++++++",
"++++++++++++++++++  oo  ++    OOOOOOOOXXOOOO  ++++++++++++++++++",
"++++++++++++++++++  oo    OOOOooOOOOOOOOOO  ++++++++++++++++++++",
"++++++++++++++++++  oo    OOOOooOOOOOOOOOO  ++++++++++++++++++++",
"++++++++++++++++++++  OOOOOOOOOOooOOOOOO  ++++++++++++++++++++++",
"++++++++++++++++++++  OOOOOOOOOOooOOOOOO  ++++++++++++++++++++++",
"++++++++++++++++++++++  OOOOOOOOOOOOOOOO  ++++++++++++++++++++++",
"++++++++++++++++++++++  OOOOOOOOOOOOOOOO  ++++++++++++++++++++++",
"++++++++++++++++++++++  OOOO  OOOOOO  OO  ++++++++++++++++++++++",
"++++++++++++++++++++++  OOOO  OOOOOO  OO  ++++++++++++++++++++++",
"++++++++++++++++++++++++  OO    OOOO  OO  ++++++++++++++++++++++",
"++++++++++++++++++++++++  OO    OOOO  OO  ++++++++++++++++++++++",
"++++++++++++++++++++++++++++++++++++++++++++++++++++++++++++++++",
"++++++++++++++++++++++++++++++++++++++++++++++++++++++++++++++++",
"++++++++++++++++++++++++++++++++++++++++++++++++++++++++++++++++",
"++++++++++++++++++++++++++++++++++++++++++++++++++++++++++++++++",
"++++++++++++++++++++++++++++++++++++++++++++++++++++++++++++++++",
"++++++++++++++++++++++++++++++++++++++++++++++++++++++++++++++++",
"++++++++++++++++++++++++++++++++++++++++++++++++++++++++++++++++",
"++++++++++++++++++++++++++++++++++++++++++++++++++++++++++++++++",
"++++++++++++++++++++++++++++++++++++++++++++++++++++++++++++++++",
"++++++++++++++++++++++++++++++++++++++++++++++++++++++++++++++++",
"++++++++++++++++++++++++++++++++++++++++++++++++++++++++++++++++",
"++++++++++++++++++++++++++++++++++++++++++++++++++++++++++++++++",
"++++++++++++++++++++++++++++++++++++++++++++++++++++++++++++++++",
"++++++++++++++++++++++++++++++++++++++++++++++++++++++++++++++++",
"++++++++++++++++++++++++++++++++++++++++++++++++++++++++++++++++",
"++++++++++++++++++++++++++++++++++++++++++++++++++++++++++++++++",
"++++++++++++++++++++++++++++++++++++++++++++++++++++++++++++++++",
"++++++++++++++++++++++++++++++++++++++++++++++++++++++++++++++++"
};
