/* XPM */
static char *result[] = {
/* columns rows colors chars-per-pixel */
"64 64 20 1 ",
"  c #232936",
". c #2D4959",
"X c #304253",
"o c #304960",
"O c #305362",
"+ c #385E7A",
"@ c #366773",
"# c #47444A",
"$ c #634640",
"% c #704F46",
"& c #7C574C",
"* c #916656",
"= c #986C5A",
"- c #9E725D",
"; c #B58567",
": c #BF957A",
"> c #3A6E85",
", c #3E838C",
"< c #C7A189",
"1 c None",
/* pixels */
"11111111XXXXXXXXXXXX11111111111111111111111111111111111111111111",
"11111111XXXXXXXXXXXX11111111111111111111111111111111111111111111",
"11111111XXXXXXXXXXXX11111111111111111111111111111111111111111111",
"11111111XXXXXXXXXXXX11111111111111111111111111111111111111111111",
"1111####,,,,,,,,>>>>XXXX11111111OOOOOOOOOOOO11111111111111111111",
"1111####,,,,,,,,>>>>XXXX11111111OOOOOOOOOOOO11111111111111111111",
"1111####,,,,,,,,>>>>XXXX11111111OOOOOOOOOOOO11111111111111111111",
"1111####,,,,,,,,>>>>XXXX11111111OOOOOOOOOOOO11111111111111111111",
"1111%%%%####;;;;    >>>>XXXXOOOO,,,,,,,,OOOO11111111111111111111",
"1111%%%%####;;;;    >>>>XXXXOOOO,,,,,,,,OOOO11111111111111111111",
"1111%%%%####;;;;    >>>>XXXXOOOO,,,,,,,,OOOO11111111111111111111",
"1111%%%%####;;;;    >>>>XXXXOOOO,,,,,,,,OOOO11111111111111111111",
"1111%%%%####;;;;;;;;::::>>>>XXXX@@@@@@@@OOOO11111111111111111111",
"1111%%%%####;;;;;;;;::::>>>>XXXX@@@@@@@@OOOO11111111111111111111",
"1111%%%%####;;;;;;;;::::>>>>XXXX@@@@@@@@OOOO11111111111111111111",
"1111%%%%####;;;;;;;;::::>>>>XXXX@@@@@@@@OOOO11111111111111111111",
"1111%%%%<<<<::::::::&&&&,,,,>>>>XXXX,,,,,,,,OOOO1111111111111111",
"1111%%%%<<<<::::::::&&&&,,,,>>>>XXXX,,,,,,,,OOOO1111111111111111",
"1111%%%%<<<<::::::::&&&&,,,,>>>>XXXX,,,,,,,,OOOO1111111111111111",
"1111%%%%<<<<::::::::&&&&,,,,>>>>XXXX,,,,,,,,OOOO1111111111111111",
"11111111%%%%&&&&&&&&****$$$$,,,,>>>>XXXX@@@@OOOO1111111111111111",
"11111111%%%%&&&&&&&&****$$$$,,,,>>>>XXXX@@@@OOOO1111111111111111",
"11111111%%%%&&&&&&&&****$$$$,,,,>>>>XXXX@@@@OOOO1111111111111111",
"11111111%%%%&&&&&&&&****$$$$,,,,>>>>XXXX@@@@OOOO1111111111111111",
"11111111%%%%<<<<;;;;****====$$$$,,,,>>>>XXXXOOOO1111111111111111",
"11111111%%%%<<<<;;;;****====$$$$,,,,>>>>XXXXOOOO1111111111111111",
"11111111%%%%<<<<;;;;****====$$$$,,,,>>>>XXXXOOOO1111111111111111",
"11111111%%%%<<<<;;;;****====$$$$,,,,>>>>XXXXOOOO1111111111111111",
"11111111%%%%<<<<;;;;$$$$****====$$$$>>>>XXXX@@@@OOOO111111111111",
"11111111%%%%<<<<;;;;$$$$****====$$$$>>>>XXXX@@@@OOOO111111111111",
"11111111%%%%<<<<;;;;$$$$****====$$$$>>>>XXXX@@@@OOOO111111111111",
"11111111%%%%<<<<;;;;$$$$****====$$$$>>>>XXXX@@@@OOOO111111111111",
"111111111111%%%%<<<<;;;;$$$$$$$$$$$$,,,,>>>>XXXX@@@@OOOO11111111",
"111111111111%%%%<<<<;;;;$$$$$$$$$$$$,,,,>>>>XXXX@@@@OOOO11111111",
"111111111111%%%%<<<<;;;;$$$$$$$$$$$$,,,,>>>>XXXX@@@@OOOO11111111",
"111111111111%%%%<<<<;;;;$$$$$$$$$$$$,,,,>>>>XXXX@@@@OOOO11111111",
"1111111111111111%%%%<<<<;;;;;;;;;;;;---->>>>XXXX@@@@OOOO11111111",
"1111111111111111%%%%<<<<;;;;;;;;;;;;---->>>>XXXX@@@@OOOO11111111",
"1111111111111111%%%%<<<<;;;;;;;;;;;;---->>>>XXXX@@@@OOOO11111111",
"1111111111111111%%%%<<<<;;;;;;;;;;;;---->>>>XXXX@@@@OOOO11111111",
"11111111111111111111%%%%%%%%%%%%<<<<;;;;----++++XXXX111111111111",
"11111111111111111111%%%%%%%%%%%%<<<<;;;;----++++XXXX111111111111",
"11111111111111111111%%%%%%%%%%%%<<<<;;;;----++++XXXX111111111111",
"11111111111111111111%%%%%%%%%%%%<<<<;;;;----++++XXXX111111111111",
"11111111111111111111....>>>>....%%%%%%%%;;;;----++++XXXXXXXXXXXX",
"11111111111111111111....>>>>....%%%%%%%%;;;;----++++XXXXXXXXXXXX",
"11111111111111111111....>>>>....%%%%%%%%;;;;----++++XXXXXXXXXXXX",
"11111111111111111111....>>>>....%%%%%%%%;;;;----++++XXXXXXXXXXXX",
"111111111111111111111111........11111111%%%%;;;;oooooooo>>>>XXXX",
"111111111111111111111111........11111111%%%%;;;;oooooooo>>>>XXXX",
"111111111111111111111111........11111111%%%%;;;;oooooooo>>>>XXXX",
"111111111111111111111111........11111111%%%%;;;;oooooooo>>>>XXXX",
"11111111111111111111111111111111111111111111XXXXoooo++++XXXX1111",
"11111111111111111111111111111111111111111111XXXXoooo++++XXXX1111",
"11111111111111111111111111111111111111111111XXXXoooo++++XXXX1111",
"11111111111111111111111111111111111111111111XXXXoooo++++XXXX1111",
"11111111111111111111111111111111111111111111XXXX>>>>XXXX11111111",
"11111111111111111111111111111111111111111111XXXX>>>>XXXX11111111",
"11111111111111111111111111111111111111111111XXXX>>>>XXXX11111111",
"11111111111111111111111111111111111111111111XXXX>>>>XXXX11111111",
"11111111111111111111111111111111111111111111XXXXXXXX111111111111",
"11111111111111111111111111111111111111111111XXXXXXXX111111111111",
"11111111111111111111111111111111111111111111XXXXXXXX111111111111",
"11111111111111111111111111111111111111111111XXXXXXXX111111111111"
};
