/* XPM */
static char *result[] = {
/* columns rows colors chars-per-pixel */
"64 64 3 1 ",
"  c #4E693A",
". c #728F47",
"X c #9CB851",
/* pixels */
"................................................................",
"................................................................",
"................................................................",
"................................................................",
"................................................................",
"................................................................",
"................................................................",
"................................................................",
"........................................XXXXXXXXXXXX............",
"........................................XXXXXXXXXXXX............",
"........................................XXXXXXXXXXXX............",
"........................................XXXXXXXXXXXX............",
"................XXXX....XXXXXXXX....XXXXXXXXXXXX        ........",
"................XXXX....XXXXXXXX....XXXXXXXXXXXX        ........",
"................XXXX....XXXXXXXX....XXXXXXXXXXXX        ........",
"................XXXX....XXXXXXXX....XXXXXXXXXXXX        ........",
"................XXXXXXXX    XXXXXXXXXXXXXXXX        ............",
"................XXXXXXXX    XXXXXXXXXXXXXXXX        ............",
"................XXXXXXXX    XXXXXXXXXXXXXXXX        ............",
"................XXXXXXXX    XXXXXXXXXXXXXXXX        ............",
"....            XXXXXXXXXXXX        ............................",
"....            XXXXXXXXXXXX        ............................",
"....            XXXXXXXXXXXX        ............................",
"....            XXXXXXXXXXXX        ............................",
"............        XXXXXXXX....................................",
"............        XXXXXXXX....................................",
"............        XXXXXXXX....................................",
"............        XXXXXXXX....................................",
"............................        ........XXXX................",
"............................        ........XXXX................",
"............................        ........XXXX................",
"............................        ........XXXX................",
"....................XXXXXXXXXXXX....    XXXXXXXX        ........",
"....................XXXXXXXXXXXX....    XXXXXXXX        ........",
"....................XXXXXXXXXXXX....    XXXXXXXX        ........",
"....................XXXXXXXXXXXX....    XXXXXXXX        ........",
"........................XXXXXXXXXXXX....XXXX....    XXXXXXXX....",
"........................XXXXXXXXXXXX....XXXX....    XXXXXXXX....",
"........................XXXXXXXXXXXX....XXXX....    XXXXXXXX....",
"........................XXXXXXXXXXXX....XXXX....    XXXXXXXX....",
"................            XXXXXXXX....        XXXXXXXX........",
"................            XXXXXXXX....        XXXXXXXX........",
"................            XXXXXXXX....        XXXXXXXX........",
"................            XXXXXXXX....        XXXXXXXX........",
"....................                ....    XXXX........        ",
"....................                ....    XXXX........        ",
"....................                ....    XXXX........        ",
"....................                ....    XXXX........        ",
"....................................        ........        ....",
"....................................        ........        ....",
"....................................        ........        ....",
"....................................        ........        ....",
"................................................................",
"................................................................",
"................................................................",
"................................................................",
"................................................................",
"................................................................",
"................................................................",
"................................................................",
"................................................................",
"................................................................",
"................................................................",
"................................................................"
};
