/* XPM */
static char *result[] = {
/* columns rows colors chars-per-pixel */
"64 64 14 1 ",
"  c #4E4D5C",
". c #5C6D77",
"X c #6E7A80",
"o c #7B888F",
"O c #728794",
"+ c #8A98A0",
"@ c #9BAAB3",
"# c #A6AFB4",
"$ c #E6A3A3",
"% c #A7B8C2",
"& c #BAC4CA",
"* c #C6DBDE",
"= c #DFEDED",
"- c None",
/* pixels */
"--------------------****----------------****--------------------",
"--------------------****----------------****--------------------",
"--------------------****----------------****--------------------",
"--------------------****----------------****--------------------",
"----------------****$$$$****--------****$$$$****----------------",
"----------------****$$$$****--------****$$$$****----------------",
"----------------****$$$$****--------****$$$$****----------------",
"----------------****$$$$****--------****$$$$****----------------",
"----------------****$$$$====================****----------------",
"----------------****$$$$====================****----------------",
"----------------****$$$$====================****----------------",
"----------------****$$$$====================****----------------",
"------------****====================================------------",
"------------****====================================------------",
"------------****====================================------------",
"------------****====================================------------",
"--------%%%%%%%%%%%%====    ================    ====%%%%--------",
"--------%%%%%%%%%%%%====    ================    ====%%%%--------",
"--------%%%%%%%%%%%%====    ================    ====%%%%--------",
"--------%%%%%%%%%%%%====    ================    ====%%%%--------",
"------------****====================    ============------------",
"------------****====================    ============------------",
"------------****====================    ============------------",
"------------****====================    ============------------",
"--------%%%%%%%%%%%%============    $$$$    ========%%%%--------",
"--------%%%%%%%%%%%%============    $$$$    ========%%%%--------",
"--------%%%%%%%%%%%%============    $$$$    ========%%%%--------",
"--------%%%%%%%%%%%%============    $$$$    ========%%%%--------",
"------------****====================================------------",
"------------****====================================------------",
"------------****====================================------------",
"------------****====================================------------",
"----------------****============================----------------",
"----------------****============================----------------",
"----------------****============================----------------",
"----------------****============================----------------",
"--------------------++++########++++########--------------------",
"--------------------++++########++++########--------------------",
"--------------------++++########++++########--------------------",
"--------------------++++########++++########--------------------",
"----====--------@@@@@@@@&&&&&&&&############++++----------------",
"----====--------@@@@@@@@&&&&&&&&############++++----------------",
"----====--------@@@@@@@@&&&&&&&&############++++----------------",
"----====--------@@@@@@@@&&&&&&&&############++++----------------",
"--------====OOOOOOOO@@@@oooooooo####XXXXXXXX++++....------------",
"--------====OOOOOOOO@@@@oooooooo####XXXXXXXX++++....------------",
"--------====OOOOOOOO@@@@oooooooo####XXXXXXXX++++....------------",
"--------====OOOOOOOO@@@@oooooooo####XXXXXXXX++++....------------",
"------------OOOOOOOO@@@@@@@@&&&&XXXX####++++++++....------------",
"------------OOOOOOOO@@@@@@@@&&&&XXXX####++++++++....------------",
"------------OOOOOOOO@@@@@@@@&&&&XXXX####++++++++....------------",
"------------OOOOOOOO@@@@@@@@&&&&XXXX####++++++++....------------",
"----------------====@@@@@@@@@@@@####++++++++--------------------",
"----------------====@@@@@@@@@@@@####++++++++--------------------",
"----------------====@@@@@@@@@@@@####++++++++--------------------",
"----------------====@@@@@@@@@@@@####++++++++--------------------",
"------------------------oooo------------XXXX--------------------",
"------------------------oooo------------XXXX--------------------",
"------------------------oooo------------XXXX--------------------",
"------------------------oooo------------XXXX--------------------",
"----------------------------------------------------------------",
"----------------------------------------------------------------",
"----------------------------------------------------------------",
"----------------------------------------------------------------"
};
