/* XPM */
static char *result[] = {
/* columns rows colors chars-per-pixel */
"64 64 7 1 ",
"  c gray9",
". c #76CA6D",
"X c #BC8B4D",
"o c #D3A061",
"O c #96E06D",
"+ c #CBE36F",
"@ c None",
/* pixels */
"@@@@@@@@@@@@@@@@@@@@@@@@@@@@@@@@@@@@@@@@@@@@@@@@@@@@@@@@@@@@@@@@",
"@@@@@@@@@@@@@@@@@@@@@@@@@@@@@@@@@@@@@@@@@@@@@@@@@@@@@@@@@@@@@@@@",
"@@@@@@@@@@@@@@@@@@@@@@@@@@@@@@@@@@@@@@@@@@@@@@@@@@@@@@@@@@@@@@@@",
"@@@@@@@@@@@@@@@@@@@@@@@@@@@@@@@@@@@@@@@@@@@@@@@@@@@@@@@@@@@@@@@@",
"@@@@@@@@@@@@@@@@@@@@@@@@                @@@@@@@@@@@@@@@@@@@@@@@@",
"@@@@@@@@@@@@@@@@@@@@@@@@                @@@@@@@@@@@@@@@@@@@@@@@@",
"@@@@@@@@@@@@@@@@@@@@@@@@                @@@@@@@@@@@@@@@@@@@@@@@@",
"@@@@@@@@@@@@@@@@@@@@@@@@                @@@@@@@@@@@@@@@@@@@@@@@@",
"@@@@@@@@@@@@@@@@@@@@    ++++++++++++++++    @@@@@@@@@@@@@@@@@@@@",
"@@@@@@@@@@@@@@@@@@@@    ++++++++++++++++    @@@@@@@@@@@@@@@@@@@@",
"@@@@@@@@@@@@@@@@@@@@    ++++++++++++++++    @@@@@@@@@@@@@@@@@@@@",
"@@@@@@@@@@@@@@@@@@@@    ++++++++++++++++    @@@@@@@@@@@@@@@@@@@@",
"@@@@@@@@@@@@@@@@    ++++++++++++++++++++++++    @@@@@@@@@@@@@@@@",
"@@@@@@@@@@@@@@@@    ++++++++++++++++++++++++    @@@@@@@@@@@@@@@@",
"@@@@@@@@@@@@@@@@    ++++++++++++++++++++++++    @@@@@@@@@@@@@@@@",
"@@@@@@@@@@@@@@@@    ++++++++++++++++++++++++    @@@@@@@@@@@@@@@@",
"@@@@@@@@@@@@@@@@    ++++++++++++++++++++++++    @@@@@@@@@@@@@@@@",
"@@@@@@@@@@@@@@@@    ++++++++++++++++++++++++    @@@@@@@@@@@@@@@@",
"@@@@@@@@@@@@@@@@    ++++++++++++++++++++++++    @@@@@@@@@@@@@@@@",
"@@@@@@@@@@@@@@@@    ++++++++++++++++++++++++    @@@@@@@@@@@@@@@@",
"@@@@@@@@@@@@    OOOO++++++++++++++++++++++++OOOO    @@@@@@@@@@@@",
"@@@@@@@@@@@@    OOOO++++++++++++++++++++++++OOOO    @@@@@@@@@@@@",
"@@@@@@@@@@@@    OOOO++++++++++++++++++++++++OOOO    @@@@@@@@@@@@",
"@@@@@@@@@@@@    OOOO++++++++++++++++++++++++OOOO    @@@@@@@@@@@@",
"@@@@@@@@@@@@    OOOOOOOO++++++++++++++++OOOOOOOO    @@@@@@@@@@@@",
"@@@@@@@@@@@@    OOOOOOOO++++++++++++++++OOOOOOOO    @@@@@@@@@@@@",
"@@@@@@@@@@@@    OOOOOOOO++++++++++++++++OOOOOOOO    @@@@@@@@@@@@",
"@@@@@@@@@@@@    OOOOOOOO++++++++++++++++OOOOOOOO    @@@@@@@@@@@@",
"@@@@@@@@    ....OOOOOOOOOOOOOOOOOOOOOOOOOOOOOOOO....    @@@@@@@@",
"@@@@@@@@    ....OOOOOOOOOOOOOOOOOOOOOOOOOOOOOOOO....    @@@@@@@@",
"@@@@@@@@    ....OOOOOOOOOOOOOOOOOOOOOOOOOOOOOOOO....    @@@@@@@@",
"@@@@@@@@    ....OOOOOOOOOOOOOOOOOOOOOOOOOOOOOOOO....    @@@@@@@@",
"@@@@@@@@    ....OOOOOOOOOOOOOOOOOOOOOOOOOOOOOOOO....    @@@@@@@@",
"@@@@@@@@    ....OOOOOOOOOOOOOOOOOOOOOOOOOOOOOOOO....    @@@@@@@@",
"@@@@@@@@    ....OOOOOOOOOOOOOOOOOOOOOOOOOOOOOOOO....    @@@@@@@@",
"@@@@@@@@    ....OOOOOOOOOOOOOOOOOOOOOOOOOOOOOOOO....    @@@@@@@@",
"@@@@@@@@    ........OOOOOOOOOOOOOOOOOOOOOOOO........    @@@@@@@@",
"@@@@@@@@    ........OOOOOOOOOOOOOOOOOOOOOOOO........    @@@@@@@@",
"@@@@@@@@    ........OOOOOOOOOOOOOOOOOOOOOOOO........    @@@@@@@@",
"@@@@@@@@    ........OOOOOOOOOOOOOOOOOOOOOOOO........    @@@@@@@@",
"@@@@@@@@    ........................................    @@@@@@@@",
"@@@@@@@@    ........................................    @@@@@@@@",
"@@@@@@@@    ........................................    @@@@@@@@",
"@@@@@@@@    ........................................    @@@@@@@@",
"@@@@@@@@@@@@    ................................    @@@@@@@@@@@@",
"@@@@@@@@@@@@    ................................    @@@@@@@@@@@@",
"@@@@@@@@@@@@    ................................    @@@@@@@@@@@@",
"@@@@@@@@@@@@    ................................    @@@@@@@@@@@@",
"@@@@@@@@@@@@@@@@        XXXXXXXXXXXXXXXX        @@@@@@@@@@@@@@@@",
"@@@@@@@@@@@@@@@@        XXXXXXXXXXXXXXXX        @@@@@@@@@@@@@@@@",
"@@@@@@@@@@@@@@@@        XXXXXXXXXXXXXXXX        @@@@@@@@@@@@@@@@",
"@@@@@@@@@@@@@@@@        XXXXXXXXXXXXXXXX        @@@@@@@@@@@@@@@@",
"@@@@@@@@@@@@@@@@@@@@    oooooooooooooooo    @@@@@@@@@@@@@@@@@@@@",
"@@@@@@@@@@@@@@@@@@@@    oooooooooooooooo    @@@@@@@@@@@@@@@@@@@@",
"@@@@@@@@@@@@@@@@@@@@    oooooooooooooooo    @@@@@@@@@@@@@@@@@@@@",
"@@@@@@@@@@@@@@@@@@@@    oooooooooooooooo    @@@@@@@@@@@@@@@@@@@@",
"@@@@@@@@@@@@@@@@@@@@    oooooooooooooooo    @@@@@@@@@@@@@@@@@@@@",
"@@@@@@@@@@@@@@@@@@@@    oooooooooooooooo    @@@@@@@@@@@@@@@@@@@@",
"@@@@@@@@@@@@@@@@@@@@    oooooooooooooooo    @@@@@@@@@@@@@@@@@@@@",
"@@@@@@@@@@@@@@@@@@@@    oooooooooooooooo    @@@@@@@@@@@@@@@@@@@@",
"@@@@@@@@@@@@@@@@@@@@@@@@@@@@@@@@@@@@@@@@@@@@@@@@@@@@@@@@@@@@@@@@",
"@@@@@@@@@@@@@@@@@@@@@@@@@@@@@@@@@@@@@@@@@@@@@@@@@@@@@@@@@@@@@@@@",
"@@@@@@@@@@@@@@@@@@@@@@@@@@@@@@@@@@@@@@@@@@@@@@@@@@@@@@@@@@@@@@@@",
"@@@@@@@@@@@@@@@@@@@@@@@@@@@@@@@@@@@@@@@@@@@@@@@@@@@@@@@@@@@@@@@@"
};
